<?xml version="1.0" encoding="UTF-8"?><svg xmlns="http://www.w3.org/2000/svg" viewBox="0 0 325.85 202.29"><g id="line"><g><path d="m29.59,181.69s3.56.72,9.84,1.74" fill="none" stroke="#e6e6e6" stroke-miterlimit="10" stroke-width="6"/><path d="m59.22,186.26c56.79,7.03,178.43,13.28,213.4-55.31,46.12-90.47-45.28-117.08-45.28-117.08,0,0-94.27-28.97-140.4,7.69-46.12,36.66-41.83,84.43-17.74,111.76,39.62,44.94,224.65,36.26,249.46-31.34,9.05-24.66,1.72-45.73-6.19-59.22" fill="none" stroke="#e6e6e6" stroke-dasharray="0 0 19.99 19.99" stroke-miterlimit="10" stroke-width="6"/><path d="m306.94,34.44c-3.67-4.87-6.53-7.56-6.53-7.56" fill="none" stroke="#e6e6e6" stroke-miterlimit="10" stroke-width="6"/></g></g><g id="star"><polygon points="43.84 197.3 27.59 191.94 13.97 202.29 14.05 185.18 0 175.42 16.29 170.21 21.23 153.83 31.22 167.72 48.32 167.35 38.21 181.15 43.84 197.3" fill="#f7931e"/></g></svg>