<?xml version="1.0" encoding="UTF-8"?><svg id="Layer_1" xmlns="http://www.w3.org/2000/svg" viewBox="0 0 604.59 381.69"><g><path d="m44.35,342.54s3.47.7,9.83,1.81" style="fill:none; stroke:#e6e6e6; stroke-miterlimit:10; stroke-width:6px;"/><path d="m74.07,347.58c90.27,13.59,359.47,40.95,432.07-101.46,87.64-171.91-86.03-222.47-86.03-222.47,0,0-179.13-55.06-266.78,14.61-87.64,69.66-79.49,160.42-33.71,212.36,75.28,85.39,426.87,68.9,474.02-59.55,21.04-57.32-4.51-104.44-21.64-127.46" style="fill:none; stroke:#e6e6e6; stroke-dasharray:0 0 20.16 20.16; stroke-miterlimit:10; stroke-width:6px;"/><path d="m565.74,55.71c-4.06-4.78-6.78-7.34-6.78-7.34" style="fill:none; stroke:#e6e6e6; stroke-miterlimit:10; stroke-width:6px;"/></g><polygon points="80.46 372.53 50.65 362.7 25.64 381.69 25.78 350.29 0 332.38 29.9 322.81 38.97 292.76 57.31 318.23 88.7 317.57 70.13 342.89 80.46 372.53" style="fill:#f7931e;"/></svg>